<svg width="41" height="40" viewBox="0 0 41 40" fill="none" xmlns="http://www.w3.org/2000/svg">
<path fill-rule="evenodd" clip-rule="evenodd" d="M20.5 4.58335C18.222 4.58378 15.9979 5.27575 14.1217 6.56771C12.2455 7.85967 10.8058 9.69076 9.99285 11.8188C9.17995 13.9468 9.0322 16.2714 9.56917 18.4852C10.1061 20.699 11.3025 22.6976 13 24.2167L13.005 24.2234C13.9333 25.055 14.6383 25.685 15.1417 26.1483C15.6167 26.5817 15.9917 26.9384 16.19 27.1817L16.21 27.2067C16.58 27.6617 16.9 28.0584 17.1133 28.5334C17.325 29.0067 17.405 29.5117 17.4983 30.09L17.5033 30.1234C17.5517 30.42 17.57 30.7833 17.5783 31.25H23.4217C23.43 30.7833 23.4483 30.42 23.4967 30.1234L23.5017 30.09C23.595 29.5117 23.675 29.0067 23.8867 28.5334C24.1 28.0584 24.42 27.6617 24.79 27.2067L24.81 27.1817C25.0083 26.9384 25.3833 26.5817 25.8583 26.1483C26.3617 25.685 27.0667 25.055 27.995 24.2234L28.0017 24.2167C29.6993 22.6975 30.8957 20.6987 31.4326 18.4848C31.9695 16.2708 31.8217 13.9461 31.0085 11.818C30.1954 9.68991 28.7554 7.85884 26.879 6.567C25.0025 5.27517 22.7781 4.58345 20.5 4.58335ZM23.4067 33.75H17.5933C17.6 33.9222 17.6089 34.0761 17.62 34.2117C17.6533 34.5867 17.7117 34.7234 17.7517 34.7917C17.8613 34.9813 18.0187 35.1388 18.2083 35.2484C18.275 35.2884 18.4133 35.345 18.7883 35.38C19.18 35.415 19.6983 35.4167 20.5 35.4167C21.3017 35.4167 21.82 35.4167 22.2117 35.38C22.5867 35.3467 22.7233 35.2884 22.7917 35.2484C22.9813 35.1388 23.1388 34.9813 23.2483 34.7917C23.2883 34.725 23.3467 34.5867 23.38 34.2117C23.3911 34.0761 23.4 33.9222 23.4067 33.75ZM6.75001 15.8334C6.75018 13.54 7.32397 11.2831 8.41914 9.26814C9.51432 7.25318 11.0961 5.54415 13.0205 4.29664C14.9448 3.04913 17.1507 2.30276 19.4372 2.12549C21.7237 1.94822 24.0182 2.34568 26.1118 3.28167C28.2055 4.21767 30.0318 5.66247 31.4244 7.48455C32.8171 9.30663 33.7319 11.4481 34.0855 13.714C34.4392 15.98 34.2205 18.2984 33.4493 20.4582C32.6781 22.618 31.3789 24.5506 29.67 26.08C28.959 26.7131 28.2512 27.3498 27.5467 27.99C27.2978 28.2187 27.0533 28.4521 26.8133 28.69L26.7533 28.755C26.32 29.29 26.225 29.4284 26.17 29.5534C26.1133 29.6784 26.0733 29.84 25.965 30.52C25.9217 30.7884 25.9167 31.2484 25.9167 32.5V32.5534C25.9167 33.2867 25.9167 33.92 25.87 34.4367C25.82 34.9867 25.71 35.53 25.415 36.0417C25.0858 36.6121 24.6121 37.0858 24.0417 37.415C23.53 37.71 22.9867 37.82 22.4383 37.87C21.9183 37.9167 21.2867 37.9167 20.555 37.9167H20.4467C19.7133 37.9167 19.08 37.9167 18.5633 37.87C18.0133 37.82 17.47 37.71 16.9583 37.415C16.3879 37.0858 15.9142 36.6121 15.585 36.0417C15.29 35.53 15.18 34.9867 15.13 34.4384C15.0833 33.9184 15.0833 33.2867 15.0833 32.555V32.5C15.0833 31.25 15.0783 30.7884 15.035 30.52C14.9267 29.84 14.885 29.6784 14.83 29.5534C14.775 29.4284 14.68 29.29 14.2467 28.7534L14.23 28.7367L14.1867 28.6883L14.025 28.5267C13.8369 28.3452 13.6464 28.1663 13.4533 27.99C12.9617 27.54 12.2667 26.9184 11.33 26.08C9.88726 24.7916 8.73334 23.2125 7.94401 21.4466C7.15467 19.6806 6.74777 17.7677 6.75001 15.8334Z" fill="#70B5FF"/>
<path fill-rule="evenodd" clip-rule="evenodd" d="M22.5362 13.15C22.8058 13.3428 22.9877 13.6347 23.0421 13.9616C23.0965 14.2885 23.0188 14.6236 22.8262 14.8933L20.6662 17.9166H23.2379C23.4675 17.9167 23.6927 17.9801 23.8887 18.0997C24.0847 18.2194 24.244 18.3907 24.349 18.5949C24.4541 18.7991 24.5008 19.0283 24.4842 19.2574C24.4675 19.4864 24.388 19.7064 24.2545 19.8933L20.6829 24.8933C20.5892 25.0311 20.4689 25.1487 20.3291 25.2393C20.1893 25.3299 20.0327 25.3916 19.8687 25.4209C19.7047 25.4501 19.5365 25.4463 19.374 25.4096C19.2115 25.3729 19.058 25.3041 18.9224 25.2072C18.7869 25.1103 18.6721 24.9874 18.5848 24.8455C18.4975 24.7036 18.4394 24.5457 18.4139 24.381C18.3885 24.2164 18.3963 24.0483 18.4367 23.8867C18.4772 23.7251 18.5495 23.5732 18.6495 23.44L20.8079 20.4166H18.2379C18.0082 20.4166 17.783 20.3532 17.587 20.2336C17.391 20.1139 17.2317 19.9426 17.1267 19.7384C17.0217 19.5341 16.9749 19.3049 16.9916 19.0759C17.0083 18.8469 17.0877 18.6268 17.2212 18.44L20.7912 13.44C20.8867 13.3063 21.0076 13.1927 21.1469 13.1057C21.2863 13.0188 21.4415 12.9602 21.6036 12.9332C21.7657 12.9063 21.9314 12.9116 22.0915 12.9488C22.2515 12.986 22.4026 13.0543 22.5362 13.15Z" fill="#70B5FF"/>
</svg>
