<svg width="41" height="40" viewBox="0 0 41 40" fill="none" xmlns="http://www.w3.org/2000/svg">
<path fill-rule="evenodd" clip-rule="evenodd" d="M7.58033 14.4584C6.47359 14.2326 5.4487 13.7113 4.61455 12.9497C3.7804 12.1881 3.16817 11.2147 2.84292 10.133C2.51767 9.05136 2.49155 7.90177 2.76733 6.80644C3.04312 5.7111 3.6105 4.71094 4.4092 3.91225C5.20789 3.11355 6.20805 2.54617 7.30338 2.27038C8.39872 1.9946 9.54831 2.02072 10.63 2.34597C11.7117 2.67123 12.685 3.28345 13.4466 4.1176C14.2082 4.95175 14.7296 5.97664 14.9553 7.08338H26.0387C26.2644 5.97664 26.7858 4.95175 27.5474 4.1176C28.309 3.28345 29.2823 2.67123 30.364 2.34597C31.4457 2.02072 32.5953 1.9946 33.6906 2.27038C34.7859 2.54617 35.7861 3.11355 36.5848 3.91225C37.3835 4.71094 37.9509 5.7111 38.2267 6.80644C38.5024 7.90177 38.4763 9.05136 38.1511 10.133C37.8258 11.2147 37.2136 12.1881 36.3794 12.9497C35.5453 13.7113 34.5204 14.2326 33.4137 14.4584V25.5417C34.5204 25.7675 35.5453 26.2888 36.3794 27.0504C37.2136 27.812 37.8258 28.7854 38.1511 29.867C38.4763 30.9487 38.5024 32.0983 38.2267 33.1937C37.9509 34.289 37.3835 35.2891 36.5848 36.0878C35.7861 36.8865 34.7859 37.4539 33.6906 37.7297C32.5953 38.0055 31.4457 37.9794 30.364 37.6541C29.2823 37.3289 28.309 36.7166 27.5474 35.8825C26.7858 35.0483 26.2644 34.0234 26.0387 32.9167H14.9553C14.7296 34.0234 14.2082 35.0483 13.4466 35.8825C12.685 36.7166 11.7117 37.3289 10.63 37.6541C9.54831 37.9794 8.39872 38.0055 7.30338 37.7297C6.20805 37.4539 5.20789 36.8865 4.4092 36.0878C3.6105 35.2891 3.04312 34.289 2.76733 33.1937C2.49155 32.0983 2.51767 30.9487 2.84292 29.867C3.16817 28.7854 3.7804 27.812 4.61455 27.0504C5.4487 26.2888 6.47359 25.7675 7.58033 25.5417V14.4584ZM5.08033 8.33338C5.08033 7.84092 5.17732 7.35329 5.36578 6.89831C5.55423 6.44334 5.83046 6.02995 6.17868 5.68173C6.5269 5.33351 6.94029 5.05729 7.39526 4.86883C7.85023 4.68037 8.33787 4.58338 8.83033 4.58338C9.32278 4.58338 9.81042 4.68037 10.2654 4.86883C10.7204 5.05729 11.1338 5.33351 11.482 5.68173C11.8302 6.02995 12.1064 6.44334 12.2949 6.89831C12.4833 7.35329 12.5803 7.84092 12.5803 8.33338C12.5803 9.32794 12.1852 10.2818 11.482 10.985C10.7787 11.6883 9.82489 12.0834 8.83033 12.0834C7.83576 12.0834 6.88194 11.6883 6.17868 10.985C5.47541 10.2818 5.08033 9.32794 5.08033 8.33338ZM10.0803 25.5417V14.4584C11.2814 14.2134 12.384 13.6207 13.2508 12.7539C14.1176 11.8871 14.7104 10.7845 14.9553 9.58338H26.0387C26.2856 10.7836 26.8791 11.8851 27.7455 12.7515C28.612 13.618 29.7134 14.2114 30.9137 14.4584V25.5417C29.7134 25.7887 28.612 26.3821 27.7455 27.2486C26.8791 28.115 26.2856 29.2165 26.0387 30.4167H14.9553C14.7084 29.2165 14.1149 28.115 13.2485 27.2486C12.382 26.3821 11.2805 25.7887 10.0803 25.5417ZM8.83033 27.9167C7.83576 27.9167 6.88194 28.3118 6.17868 29.0151C5.47541 29.7183 5.08033 30.6721 5.08033 31.6667C5.08033 32.6613 5.47541 33.6151 6.17868 34.3184C6.88194 35.0216 7.83576 35.4167 8.83033 35.4167C9.82489 35.4167 10.7787 35.0216 11.482 34.3184C12.1852 33.6151 12.5803 32.6613 12.5803 31.6667C12.5803 30.6721 12.1852 29.7183 11.482 29.0151C10.7787 28.3118 9.82489 27.9167 8.83033 27.9167ZM35.9137 8.33338C35.9137 9.32794 35.5186 10.2818 34.8153 10.985C34.112 11.6883 33.1582 12.0834 32.1637 12.0834C31.1691 12.0834 30.2153 11.6883 29.512 10.985C28.8087 10.2818 28.4137 9.32794 28.4137 8.33338C28.4137 7.33882 28.8087 6.38499 29.512 5.68173C30.2153 4.97847 31.1691 4.58338 32.1637 4.58338C33.1582 4.58338 34.112 4.97847 34.8153 5.68173C35.5186 6.38499 35.9137 7.33882 35.9137 8.33338ZM28.4137 31.6667C28.4137 30.6721 28.8087 29.7183 29.512 29.0151C30.2153 28.3118 31.1691 27.9167 32.1637 27.9167C33.1582 27.9167 34.112 28.3118 34.8153 29.0151C35.5186 29.7183 35.9137 30.6721 35.9137 31.6667C35.9137 32.6613 35.5186 33.6151 34.8153 34.3184C34.112 35.0216 33.1582 35.4167 32.1637 35.4167C31.1691 35.4167 30.2153 35.0216 29.512 34.3184C28.8087 33.6151 28.4137 32.6613 28.4137 31.6667Z" fill="#FFAF68"/>
</svg>
